<svg xmlns="http://www.w3.org/2000/svg" version="1.1" xmlns:xlink="http://www.w3.org/1999/xlink" width="512" height="512"><svg xmlns="http://www.w3.org/2000/svg" viewBox="0 0 512 512">
  <!-- Background gradient - Original Purple theme -->
  <defs>
    <linearGradient id="SvgjsLinearGradient1010" x1="0%" y1="0%" x2="100%" y2="100%">
      <stop offset="0%" style="stop-color:#667eea;stop-opacity:1"></stop>
      <stop offset="100%" style="stop-color:#764ba2;stop-opacity:1"></stop>
    </linearGradient>
    
    <!-- Glow effect for circuits -->
    <filter id="SvgjsFilter1009">
      <feGaussianBlur stdDeviation="3" result="coloredBlur"></feGaussianBlur>
      <feMerge>
        <feMergeNode in="coloredBlur"></feMergeNode>
        <feMergeNode in="SourceGraphic"></feMergeNode>
      </feMerge>
    </filter>
    
    <linearGradient id="SvgjsLinearGradient1008" x1="0%" y1="0%" x2="100%" y2="100%">
      <stop offset="0%" style="stop-color:#00f5ff;stop-opacity:1"></stop>
      <stop offset="100%" style="stop-color:#00d4ff;stop-opacity:1"></stop>
    </linearGradient>
  </defs>
  
  <!-- Rounded square background -->
  <rect width="512" height="512" rx="115" fill="url(#bgGrad)"></rect>
  
  <!-- Enhanced background circuit pattern -->
  <g opacity="0.2" stroke="#00d4ff" stroke-width="2" fill="none">
    <!-- Top left circuits -->
    <line x1="40" y1="60" x2="130" y2="60"></line>
    <circle cx="130" cy="60" r="5" fill="#00d4ff"></circle>
    <line x1="130" y1="60" x2="130" y2="120"></line>
    <circle cx="130" cy="120" r="5" fill="#00d4ff"></circle>
    <line x1="130" y1="120" x2="80" y2="120"></line>
    <circle cx="80" cy="120" r="4" fill="#00d4ff"></circle>
    
    <line x1="50" y1="90" x2="100" y2="90"></line>
    <circle cx="100" cy="90" r="4" fill="#00d4ff"></circle>
    <line x1="100" y1="90" x2="100" y2="140"></line>
    
    <!-- Top right circuits -->
    <line x1="380" y1="60" x2="470" y2="60"></line>
    <circle cx="380" cy="60" r="5" fill="#00d4ff"></circle>
    <line x1="380" y1="60" x2="380" y2="120"></line>
    <circle cx="380" cy="120" r="5" fill="#00d4ff"></circle>
    <line x1="380" y1="120" x2="430" y2="120"></line>
    <circle cx="430" cy="120" r="4" fill="#00d4ff"></circle>
    
    <line x1="410" y1="85" x2="460" y2="85"></line>
    <circle cx="410" cy="85" r="4" fill="#00d4ff"></circle>
    <line x1="410" y1="85" x2="410" y2="135"></line>
    
    <!-- Bottom left circuits -->
    <line x1="40" y1="450" x2="130" y2="450"></line>
    <circle cx="130" cy="450" r="5" fill="#00d4ff"></circle>
    <line x1="130" y1="450" x2="130" y2="390"></line>
    <circle cx="130" cy="390" r="5" fill="#00d4ff"></circle>
    <line x1="130" y1="390" x2="80" y2="390"></line>
    <circle cx="80" cy="390" r="4" fill="#00d4ff"></circle>
    
    <line x1="50" y1="420" x2="100" y2="420"></line>
    <circle cx="100" cy="420" r="4" fill="#00d4ff"></circle>
    <line x1="100" y1="420" x2="100" y2="370"></line>
    
    <!-- Bottom right circuits -->
    <line x1="380" y1="450" x2="470" y2="450"></line>
    <circle cx="380" cy="450" r="5" fill="#00d4ff"></circle>
    <line x1="380" y1="450" x2="380" y2="390"></line>
    <circle cx="380" cy="390" r="5" fill="#00d4ff"></circle>
    <line x1="380" y1="390" x2="430" y2="390"></line>
    <circle cx="430" cy="390" r="4" fill="#00d4ff"></circle>
    
    <line x1="410" y1="425" x2="460" y2="425"></line>
    <circle cx="410" cy="425" r="4" fill="#00d4ff"></circle>
    <line x1="410" y1="425" x2="410" y2="375"></line>
    
    <!-- Middle horizontal circuits -->
    <line x1="60" y1="250" x2="120" y2="250"></line>
    <circle cx="120" cy="250" r="4" fill="#00d4ff"></circle>
    <line x1="120" y1="250" x2="120" y2="280"></line>
    <circle cx="120" cy="280" r="4" fill="#00d4ff"></circle>
    
    <line x1="390" y1="250" x2="450" y2="250"></line>
    <circle cx="390" cy="250" r="4" fill="#00d4ff"></circle>
    <line x1="390" y1="250" x2="390" y2="280"></line>
    <circle cx="390" cy="280" r="4" fill="#00d4ff"></circle>
    
    <!-- Diagonal connections -->
    <line x1="100" y1="140" x2="130" y2="170"></line>
    <line x1="410" y1="135" x2="380" y2="165"></line>
    <line x1="100" y1="370" x2="130" y2="340"></line>
    <line x1="410" y1="375" x2="380" y2="345"></line>
    
    <!-- Small PCB pads scattered -->
    <circle cx="70" cy="180" r="3" fill="#00d4ff" opacity="0.6"></circle>
    <circle cx="440" cy="330" r="3" fill="#00d4ff" opacity="0.6"></circle>
    <circle cx="90" cy="310" r="3" fill="#00d4ff" opacity="0.6"></circle>
    <circle cx="420" cy="200" r="3" fill="#00d4ff" opacity="0.6"></circle>
  </g>
  
  <!-- Letter B as PCB circuit traces - BIGGER & CENTERED -->
  <g filter="url(#glow)">
    <!-- Vertical backbone trace -->
    <rect x="148" y="170" width="8" height="240" fill="#00f5ff" rx="4"></rect>
    
    <!-- Top B curve - horizontal trace -->
    <rect x="156" y="170" width="75" height="8" fill="#00f5ff" rx="4"></rect>
    <!-- Via/pad at junction -->
    <circle cx="160" cy="174" r="11" fill="#00f5ff" stroke="#00d4ff" stroke-width="2"></circle>
    <circle cx="160" cy="174" r="4" fill="#667eea"></circle>
    
    <!-- Top curve vertical segment -->
    <rect x="223" y="170" width="8" height="65" fill="#00f5ff" rx="4"></rect>
    <!-- Corner via -->
    <circle cx="227" cy="174" r="10" fill="#00f5ff" stroke="#00d4ff" stroke-width="2"></circle>
    <circle cx="227" cy="174" r="3.5" fill="#667eea"></circle>
    
    <!-- Top curve return horizontal -->
    <rect x="156" y="227" width="75" height="8" fill="#00f5ff" rx="4"></rect>
    <!-- Corner via -->
    <circle cx="227" cy="231" r="10" fill="#00f5ff" stroke="#00d4ff" stroke-width="2"></circle>
    <circle cx="227" cy="231" r="3.5" fill="#667eea"></circle>
    
    <!-- Middle junction via -->
    <circle cx="160" cy="231" r="11" fill="#00f5ff" stroke="#00d4ff" stroke-width="2"></circle>
    <circle cx="160" cy="231" r="4" fill="#667eea"></circle>
    
    <!-- Bottom B curve - horizontal trace -->
    <rect x="156" y="227" width="90" height="8" fill="#00f5ff" rx="4"></rect>
    
    <!-- Bottom curve vertical segment -->
    <rect x="238" y="235" width="8" height="90" fill="#00f5ff" rx="4"></rect>
    <!-- Corner via -->
    <circle cx="242" cy="231" r="10" fill="#00f5ff" stroke="#00d4ff" stroke-width="2"></circle>
    <circle cx="242" cy="231" r="3.5" fill="#667eea"></circle>
    
    <!-- Bottom curve return -->
    <rect x="156" y="317" width="90" height="8" fill="#00f5ff" rx="4"></rect>
    <!-- Corner via -->
    <circle cx="242" cy="321" r="10" fill="#00f5ff" stroke="#00d4ff" stroke-width="2"></circle>
    <circle cx="242" cy="321" r="3.5" fill="#667eea"></circle>
    
    <!-- Bottom junction via -->
    <circle cx="160" cy="321" r="11" fill="#00f5ff" stroke="#00d4ff" stroke-width="2"></circle>
    <circle cx="160" cy="321" r="4" fill="#667eea"></circle>
    
    <!-- End via -->
    <circle cx="152" cy="406" r="12" fill="#00f5ff" stroke="#00d4ff" stroke-width="2"></circle>
    <circle cx="152" cy="406" r="4.5" fill="#667eea"></circle>
  </g>
  
  <!-- Letter K as PCB circuit traces - BIGGER & CENTERED -->
  <g filter="url(#glow)">
    <!-- Vertical backbone trace -->
    <rect x="276" y="170" width="8" height="240" fill="#00f5ff" rx="4"></rect>
    
    <!-- Top via -->
    <circle cx="280" cy="174" r="12" fill="#00f5ff" stroke="#00d4ff" stroke-width="2"></circle>
    <circle cx="280" cy="174" r="4.5" fill="#667eea"></circle>
    
    <!-- Middle junction via -->
    <circle cx="280" cy="290" r="12" fill="#00f5ff" stroke="#00d4ff" stroke-width="2"></circle>
    <circle cx="280" cy="290" r="4.5" fill="#667eea"></circle>
    
    <!-- Bottom via -->
    <circle cx="280" cy="406" r="12" fill="#00f5ff" stroke="#00d4ff" stroke-width="2"></circle>
    <circle cx="280" cy="406" r="4.5" fill="#667eea"></circle>
    
    <!-- Top diagonal trace part 1 -->
    <rect x="284" y="290" width="60" height="8" fill="#00f5ff" rx="4" transform="rotate(-32 280 290)"></rect>
    <!-- Mid via on diagonal -->
    <circle cx="324" cy="252" r="9" fill="#00f5ff" stroke="#00d4ff" stroke-width="2"></circle>
    <circle cx="324" cy="252" r="3" fill="#667eea"></circle>
    
    <!-- Top diagonal trace part 2 -->
    <rect x="324" y="252" width="65" height="8" fill="#00f5ff" rx="4" transform="rotate(-32 324 252)"></rect>
    <!-- End via -->
    <circle cx="368" cy="210" r="11" fill="#00f5ff" stroke="#00d4ff" stroke-width="2"></circle>
    <circle cx="368" cy="210" r="4" fill="#667eea"></circle>
    
    <!-- Bottom diagonal trace part 1 -->
    <rect x="284" y="290" width="60" height="8" fill="#00f5ff" rx="4" transform="rotate(32 280 290)"></rect>
    <!-- Mid via on diagonal -->
    <circle cx="324" cy="328" r="9" fill="#00f5ff" stroke="#00d4ff" stroke-width="2"></circle>
    <circle cx="324" cy="328" r="3" fill="#667eea"></circle>
    
    <!-- Bottom diagonal trace part 2 -->
    <rect x="324" y="328" width="65" height="8" fill="#00f5ff" rx="4" transform="rotate(32 324 328)"></rect>
    <!-- End via -->
    <circle cx="368" cy="370" r="11" fill="#00f5ff" stroke="#00d4ff" stroke-width="2"></circle>
    <circle cx="368" cy="370" r="4" fill="#667eea"></circle>
  </g>
  
  <!-- AI neural network (top right) -->
  <g filter="url(#glow)" transform="translate(430, 100)">
    <circle cx="0" cy="0" r="18" fill="url(#circuitGlow)"></circle>
    <circle cx="0" cy="0" r="9" fill="white"></circle>
    
    <line x1="0" y1="0" x2="0" y2="-38" stroke="url(#circuitGlow)" stroke-width="3"></line>
    <circle cx="0" cy="-38" r="12" fill="url(#circuitGlow)"></circle>
    <circle cx="0" cy="-38" r="6" fill="white"></circle>
    
    <line x1="0" y1="0" x2="33" y2="-23" stroke="url(#circuitGlow)" stroke-width="3"></line>
    <circle cx="33" cy="-23" r="10" fill="url(#circuitGlow)"></circle>
    <circle cx="33" cy="-23" r="5" fill="white"></circle>
    
    <line x1="0" y1="0" x2="40" y2="0" stroke="url(#circuitGlow)" stroke-width="3"></line>
    <circle cx="40" cy="0" r="10" fill="url(#circuitGlow)"></circle>
    <circle cx="40" cy="0" r="5" fill="white"></circle>
    
    <line x1="0" y1="0" x2="28" y2="28" stroke="url(#circuitGlow)" stroke-width="3"></line>
    <circle cx="28" cy="28" r="9" fill="url(#circuitGlow)"></circle>
    <circle cx="28" cy="28" r="4" fill="white"></circle>
    
    <line x1="0" y1="0" x2="-28" y2="20" stroke="url(#circuitGlow)" stroke-width="3"></line>
    <circle cx="-28" cy="20" r="9" fill="url(#circuitGlow)"></circle>
    <circle cx="-28" cy="20" r="4" fill="white"></circle>
  </g>
  
  <!-- Brain circuit icon (bottom left) -->
  <g transform="translate(85, 432)" filter="url(#glow)">
    <path d="M -15 -10 Q -20 -20 -10 -25 Q 0 -28 10 -25 Q 20 -20 15 -10 Q 20 0 15 10 Q 10 15 0 15 Q -10 15 -15 10 Q -20 0 -15 -10" fill="none" stroke="url(#circuitGlow)" stroke-width="3"></path>
    <line x1="-8" y1="-15" x2="-8" y2="5" stroke="url(#circuitGlow)" stroke-width="2"></line>
    <line x1="8" y1="-15" x2="8" y2="5" stroke="url(#circuitGlow)" stroke-width="2"></line>
    <line x1="-12" y1="-5" x2="12" y2="-5" stroke="url(#circuitGlow)" stroke-width="2"></line>
    <circle cx="0" cy="0" r="3" fill="white"></circle>
  </g>
  
  <!-- Circuit board particles -->
  <g>
    <circle cx="210" cy="135" r="4" fill="#00f5ff" opacity="0.8" filter="url(#glow)"></circle>
    <circle cx="380" cy="145" r="3" fill="#00d4ff" opacity="0.7" filter="url(#glow)"></circle>
    <circle cx="120" cy="440" r="3" fill="#00f5ff" opacity="0.7" filter="url(#glow)"></circle>
    <circle cx="425" cy="385" r="4" fill="#00d4ff" opacity="0.8" filter="url(#glow)"></circle>
  </g>
  
  <!-- AI badge (bottom right) -->
  <g transform="translate(437, 437)" filter="url(#glow)">
    <rect x="-25" y="-12" width="50" height="24" rx="12" fill="url(#circuitGlow)"></rect>
    <text x="0" y="5" font-family="Arial, sans-serif" font-size="16" font-weight="bold" fill="white" text-anchor="middle">AI</text>
  </g>
</svg><style>@media (prefers-color-scheme: light) { :root { filter: none; } }
@media (prefers-color-scheme: dark) { :root { filter: none; } }
</style></svg>